<?xml version="1.0" standalone="no"?><!DOCTYPE svg PUBLIC "-//W3C//DTD SVG 1.1//EN" "http://www.w3.org/Graphics/SVG/1.1/DTD/svg11.dtd"><svg t="1563948997976" class="icon" viewBox="0 0 1024 1024" version="1.1" xmlns="http://www.w3.org/2000/svg" p-id="3416" width="46" height="46" xmlns:xlink="http://www.w3.org/1999/xlink"><defs><style type="text/css"></style></defs><path d="M788.48 0h-552.96c-42.496 0-76.8 34.304-76.8 76.8v71.168c0 14.336 11.264 25.6 25.6 25.6h629.76v593.92h-604.16v-467.456c0-14.336-11.264-25.6-25.6-25.6s-25.6 11.264-25.6 25.6v647.168c0 42.496 34.304 76.8 76.8 76.8h552.96c42.496 0 76.8-34.304 76.8-76.8v-870.4c0-42.496-34.304-76.8-76.8-76.8z m-578.56 122.368v-45.568c0-14.336 11.264-25.6 25.6-25.6h552.96c14.336 0 25.6 11.264 25.6 25.6v45.568h-604.16z m578.56 850.432h-552.96c-14.336 0-25.6-11.264-25.6-25.6v-128.512h604.16v128.512c0 13.824-11.264 25.6-25.6 25.6z" p-id="3417" fill="#515151"></path><path d="M512 896m-52.224 0a52.224 52.224 0 1 0 104.448 0 52.224 52.224 0 1 0-104.448 0Z" p-id="3418" fill="#515151"></path></svg>