<?xml version="1.0" standalone="no"?><!DOCTYPE svg PUBLIC "-//W3C//DTD SVG 1.1//EN" "http://www.w3.org/Graphics/SVG/1.1/DTD/svg11.dtd"><svg t="1563948872236" class="icon" viewBox="0 0 1024 1024" version="1.1" xmlns="http://www.w3.org/2000/svg" p-id="2476" xmlns:xlink="http://www.w3.org/1999/xlink" width="46" height="46"><defs><style type="text/css"></style></defs><path d="M830.989613 809.959136l-45.985334 0 0 68.978001c-2.156106 16.526395-22.992667 22.99369-22.992667 22.99369L187.190845 901.930827c-15.08865-1.436722-22.992667-22.99369-22.992667-22.99369L164.198178 143.166677c-2.155083-16.526395 22.992667-22.992667 22.992667-22.992667l574.820768 0c18.681478 0.719384 22.992667 22.992667 22.992667 22.992667l0 298.907741 45.985334 0L830.989613 97.181343c-5.02955-20.836561-22.99369-22.992667-22.99369-22.992667L141.205511 74.188676c-17.963117 1.437745-22.992667 22.992667-22.992667 22.992667l0 827.742151c1.436722 16.526395 22.992667 22.992667 22.992667 22.992667l666.791435 0c23.712051-5.747911 22.99369-22.992667 22.99369-22.992667L830.990636 809.959136zM716.025255 442.074418l0-68.978001L233.176179 373.096417l0 68.978001L716.025255 442.074418zM853.98228 488.059751 647.047254 694.993754l-91.970668-114.963335c-78.836533-26.282596-45.985334 45.985334-45.985334 45.985334l91.970668 114.965381c42.696428 49.275263 91.971691 0 91.971691 0l206.936049-206.936049C916.392702 461.777155 853.98228 488.059751 853.98228 488.059751z" p-id="2477" fill="#515151"></path></svg>